<svg xmlns="http://www.w3.org/2000/svg" version="1.1" xmlns:xlink="http://www.w3.org/1999/xlink" width="1500" height="1500" viewBox="0 0 1500 1500"><rect width="1500" height="1500" x="0" y="0" id="background" stroke="transparent" fill="#ffffff"></rect><svg xml:space="preserve" width="1000" height="1000" data-version="2" data-id="lg_CldljPhabVE3ulGVbl" viewBox="0 0 414 506" x="250" y="250"><rect width="100%" height="100%" fill="transparent"></rect><path fill="#1f5e42" d="M158.855 500.8H3.805V5.2h155.05q73.99 0 130.63 31.69 56.64 31.68 88.67 87.61 32.04 55.93 32.04 128.86 0 54.16-18.23 99.65-18.23 45.49-51.86 78.41-33.63 32.92-79.65 51.15-46.02 18.23-101.6 18.23M83.095 78.84v347.98h66.2q40 0 72.75-11.86 32.74-11.86 56.29-34.52 23.54-22.65 36.28-54.69 12.74-32.04 12.74-72.39 0-54.16-22.12-93.28-22.13-39.12-62.13-60.18-40-21.06-93.81-21.06z"></path><path fill="#1f5e42" fill-rule="evenodd" d="M319.784 243.275a7.58 5.577 0 0 1 7.58 5.577v89.232a7.58 5.577 0 0 1-7.58 5.577H77.224a7.58 5.577 0 0 1-7.58-5.577v-89.232c0-3.067 3.411-5.577 7.58-5.577h34.754l20.542-15.086a7.58 5.577 0 0 1 5.344-1.645h22.74a7.58 5.577 0 0 1 7.58 5.577v78.078h60.64v-78.078c0-3.067 3.411-5.577 7.58-5.577h22.74a7.58 5.577 0 0 1 5.344 1.645l20.542 15.086zm-64.43 22.308a3.79 2.789 0 0 0 3.79 2.789h18.95a3.79 2.789 0 0 0 3.79-2.789v-5.577a3.79 2.789 0 0 0-3.79-2.788h-18.95a3.79 2.789 0 0 0-3.79 2.788zm30.32 33.462a3.79 2.789 0 0 0 3.79 2.789h18.95a3.79 2.789 0 0 0 3.79-2.789v-5.577a3.79 2.789 0 0 0-3.79-2.788h-18.95a3.79 2.789 0 0 0-3.79 2.788zm-41.69 25.097a3.79 2.789 0 0 0 3.79 2.788h18.95a3.79 2.789 0 0 0 3.79-2.788v-5.577a3.79 2.789 0 0 0-3.79-2.789h-18.95a3.79 2.789 0 0 0-3.79 2.789zm-117.49-64.136a3.79 2.789 0 0 0 3.79 2.789h18.95a3.79 2.789 0 0 0 3.79-2.789v-5.577a3.79 2.789 0 0 0-3.79-2.789h-18.95a3.79 2.789 0 0 0-3.79 2.789zm-37.9 30.674a3.79 2.789 0 0 0 3.79 2.788h18.95a3.79 2.789 0 0 0 3.79-2.788v-5.577a3.79 2.789 0 0 0-3.79-2.789h-18.95a3.79 2.789 0 0 0-3.79 2.788zm22.74 39.039a3.79 2.789 0 0 0 3.79 2.788h18.95a3.79 2.789 0 0 0 3.79-2.788v-5.577a3.79 2.789 0 0 0-3.79-2.789h-18.95a3.79 2.789 0 0 0-3.79 2.789zm106.12-125.483h-11.37v10.624l5.571-1.227a3.79 2.789 0 0 1 4.738 1.896l2.122 5.299a3.79 2.789 0 0 1-2.501 3.485l-9.93 2.231v10.652l5.571-1.227a3.79 2.789 0 0 1 4.738 1.896l2.122 5.298a3.79 2.789 0 0 1-2.501 3.486l-9.93 2.203v10.652l5.571-1.227a3.79 2.789 0 0 1 4.738 1.896l2.122 5.298a3.79 2.789 0 0 1-2.501 3.486l-9.93 2.203v10.652l5.571-1.227a3.79 2.789 0 0 1 4.738 1.896l2.122 5.298a3.79 2.789 0 0 1-2.501 3.486l-9.93 2.203v8.366a3.79 2.789 0 0 1-3.79 2.788h-7.58a3.79 2.789 0 0 1-3.79-2.788v-5.048l-5.571 1.227a3.79 2.789 0 0 1-4.738-1.896l-2.122-5.298a3.79 2.789 0 0 1 2.501-3.486l9.93-2.23v-10.597l-5.571 1.227a3.79 2.789 0 0 1-4.738-1.896l-2.122-5.298a3.79 2.789 0 0 1 2.501-3.486l9.93-2.259v-10.596l-5.571 1.227a3.79 2.789 0 0 1-4.738-1.896l-2.122-5.298a3.79 2.789 0 0 1 2.501-3.486l9.93-2.258V229.89l-5.571 1.227a3.79 2.789 0 0 1-4.738-1.896l-2.122-5.298a3.79 2.789 0 0 1 2.501-3.486l9.93-2.259v-13.942h-11.37a7.58 5.577 0 0 1-7.58-5.577v-18.376L161.21 161.85a7.58 5.577 0 0 1 6.974-7.808h60.64a7.58 5.577 0 0 1 6.974 7.78l-10.764 18.432v18.404a7.58 5.577 0 0 1-7.58 5.577"></path></svg></svg>